<svg width="50" height="48" viewBox="0 0 50 48" fill="none" xmlns="http://www.w3.org/2000/svg">
<g clip-path="url(#clip0_30_1587)">
<path d="M38.3636 8.73211H40.5908V10.9137C40.5908 11.4922 40.8255 12.0471 41.2432 12.4562C41.6609 12.8654 42.2274 13.0952 42.8181 13.0952C43.4088 13.0952 43.9753 12.8654 44.393 12.4562C44.8107 12.0471 45.0454 11.4922 45.0454 10.9137V8.73211H47.2726C47.8633 8.73211 48.4299 8.50226 48.8476 8.09314C49.2652 7.68402 49.4999 7.12914 49.4999 6.55056C49.4999 5.97197 49.2652 5.41709 48.8476 5.00797C48.4299 4.59885 47.8633 4.36901 47.2726 4.36901H45.0454V2.18746C45.0454 1.60887 44.8107 1.05399 44.393 0.644869C43.9753 0.235749 43.4088 0.00590783 42.8181 0.00590783C42.2274 0.00590783 41.6609 0.235749 41.2432 0.644869C40.8255 1.05399 40.5908 1.60887 40.5908 2.18746V4.36901H38.3636C37.7729 4.36901 37.2063 4.59885 36.7886 5.00797C36.371 5.41709 36.1363 5.97197 36.1363 6.55056C36.1363 7.12914 36.371 7.68402 36.7886 8.09314C37.2063 8.50226 37.7729 8.73211 38.3636 8.73211ZM13.8636 13.0952V34.9107C13.8636 35.4893 14.0983 36.0442 14.516 36.4533C14.9337 36.8624 15.5002 37.0922 16.0909 37.0922C16.6816 37.0922 17.2481 36.8624 17.6658 36.4533C18.0835 36.0442 18.3182 35.4893 18.3182 34.9107V13.0952C18.3182 12.5166 18.0835 11.9617 17.6658 11.5526C17.2481 11.1435 16.6816 10.9137 16.0909 10.9137C15.5002 10.9137 14.9337 11.1435 14.516 11.5526C14.0983 11.9617 13.8636 12.5166 13.8636 13.0952ZM46.3817 17.4583C46.0951 17.5155 45.8227 17.6276 45.5802 17.7879C45.3378 17.9483 45.13 18.1539 44.9686 18.3929C44.8073 18.632 44.6956 18.8998 44.64 19.1811C44.5844 19.4625 44.5859 19.7518 44.6445 20.0325C45.5141 24.1692 44.9987 28.4703 43.1747 32.2973C41.3508 36.1243 38.3156 39.2732 34.5196 41.2766C30.7236 43.28 26.3693 44.0311 22.103 43.4184C17.8366 42.8058 13.8857 40.8619 10.8367 37.8755C7.78767 34.8891 5.8031 31.0192 5.17757 26.8405C4.55204 22.6617 5.31889 18.3968 7.3643 14.6787C9.4097 10.9607 12.6246 7.98775 16.5318 6.20126C20.439 4.41476 24.8302 3.90992 29.0536 4.76169C29.6443 4.8774 30.2577 4.75854 30.759 4.43124C31.2602 4.10395 31.6082 3.59503 31.7263 3.01645C31.8444 2.43786 31.7231 1.83701 31.3889 1.34607C31.0548 0.855121 30.5352 0.514303 29.9445 0.398587C28.3145 0.101135 26.6575 -0.0304573 25 0.00590783C20.1543 0.00590783 15.4175 1.41331 11.3885 4.05014C7.35952 6.68697 4.2193 10.4348 2.36496 14.8197C0.510615 19.2046 0.0254347 24.0296 0.970771 28.6845C1.91611 33.3395 4.2495 37.6154 7.67588 40.9714C11.1023 44.3275 15.4677 46.613 20.2203 47.5389C24.9728 48.4648 29.8989 47.9896 34.3757 46.1733C38.8525 44.357 42.6788 41.2813 45.3709 37.335C48.063 33.3887 49.4999 28.7491 49.4999 24.003C49.5046 22.3909 49.3404 20.7827 49.0099 19.2035C48.9566 18.9188 48.8459 18.6474 48.6844 18.405C48.5228 18.1626 48.3137 17.9541 48.0691 17.7917C47.8245 17.6292 47.5493 17.5161 47.2596 17.4589C46.9699 17.4016 46.6715 17.4014 46.3817 17.4583ZM22.7727 17.4583V19.6399C22.7825 21.2543 23.4012 22.8083 24.51 24.003C23.4012 25.1976 22.7825 26.7516 22.7727 28.366V30.5476C22.7727 32.2833 23.4767 33.948 24.7297 35.1754C25.9828 36.4027 27.6824 37.0922 29.4545 37.0922H31.6818C33.4539 37.0922 35.1534 36.4027 36.4065 35.1754C37.6596 33.948 38.3636 32.2833 38.3636 30.5476V28.366C38.3537 26.7516 37.735 25.1976 36.6263 24.003C37.735 22.8083 38.3537 21.2543 38.3636 19.6399V17.4583C38.3636 15.7226 37.6596 14.0579 36.4065 12.8305C35.1534 11.6032 33.4539 10.9137 31.6818 10.9137H29.4545C27.6824 10.9137 25.9828 11.6032 24.7297 12.8305C23.4767 14.0579 22.7727 15.7226 22.7727 17.4583ZM33.909 30.5476C33.909 31.1262 33.6744 31.6811 33.2567 32.0902C32.839 32.4993 32.2725 32.7291 31.6818 32.7291H29.4545C28.8638 32.7291 28.2973 32.4993 27.8796 32.0902C27.4619 31.6811 27.2272 31.1262 27.2272 30.5476V28.366C27.2272 27.7875 27.4619 27.2326 27.8796 26.8235C28.2973 26.4143 28.8638 26.1845 29.4545 26.1845H31.6818C32.2725 26.1845 32.839 26.4143 33.2567 26.8235C33.6744 27.2326 33.909 27.7875 33.909 28.366V30.5476ZM33.909 17.4583V19.6399C33.909 20.2184 33.6744 20.7733 33.2567 21.1824C32.839 21.5916 32.2725 21.8214 31.6818 21.8214H29.4545C28.8638 21.8214 28.2973 21.5916 27.8796 21.1824C27.4619 20.7733 27.2272 20.2184 27.2272 19.6399V17.4583C27.2272 16.8797 27.4619 16.3248 27.8796 15.9157C28.2973 15.5066 28.8638 15.2768 29.4545 15.2768H31.6818C32.2725 15.2768 32.839 15.5066 33.2567 15.9157C33.6744 16.3248 33.909 16.8797 33.909 17.4583Z" fill="#302943"/>
</g>
<defs>
<clipPath id="clip0_30_1587">
<rect width="49" height="48" fill="white" transform="translate(0.5)"/>
</clipPath>
</defs>
</svg>
