<svg width="42" height="48" viewBox="0 0 42 48" fill="none" xmlns="http://www.w3.org/2000/svg">
<g clip-path="url(#clip0_30_1583)">
<path d="M8.0827 36.3059C8.0827 37.5594 9.10263 38.5826 10.3575 38.5826H12.9581V45.0323C12.9581 46.6661 14.2663 48 15.8737 48C17.4863 48 18.7893 46.6715 18.7893 45.0323V38.5772H23.3282V45.0269C23.3282 46.6608 24.6365 47.9946 26.2438 47.9946C27.8565 47.9946 29.1594 46.6661 29.1594 45.0269V38.5772H31.76C33.0148 38.5772 34.0348 37.554 34.0348 36.3005V15.13H8.0827V36.3059ZM27.1516 4.15909L29.5492 0.677106C29.6881 0.473544 29.656 0.200342 29.4691 0.0664189C29.2822 -0.0621468 29.0152 0.00213636 28.8764 0.205699L26.388 3.82697C24.7486 3.17878 22.9224 2.81987 21.0053 2.81987C19.0883 2.81987 17.262 3.17878 15.6227 3.82697L13.1343 0.211056C12.9954 0.00749318 12.7284 -0.0621465 12.5415 0.0717761C12.3546 0.200342 12.3226 0.468187 12.4614 0.682463L14.8591 4.16445C11.0464 5.94294 8.3764 9.31244 8.03464 13.2498H33.9867C33.6343 9.30708 30.959 5.93759 27.1516 4.15909ZM15.5266 9.64992C15.2425 9.64992 14.9647 9.56541 14.7285 9.40707C14.4923 9.24873 14.3082 9.02367 14.1995 8.76036C14.0907 8.49705 14.0623 8.20731 14.1177 7.92779C14.1731 7.64826 14.31 7.3915 14.5108 7.18997C14.7117 6.98844 14.9677 6.8512 15.2463 6.7956C15.525 6.73999 15.8138 6.76853 16.0763 6.8776C16.3387 6.98666 16.5631 7.17136 16.7209 7.40833C16.8788 7.64531 16.963 7.92391 16.963 8.20891C16.962 8.59079 16.8104 8.95674 16.5412 9.22677C16.272 9.49679 15.9072 9.64893 15.5266 9.64992ZM26.655 9.64992C26.3709 9.64992 26.0932 9.56541 25.8569 9.40707C25.6207 9.24873 25.4366 9.02367 25.3279 8.76036C25.2192 8.49705 25.1907 8.20731 25.2461 7.92779C25.3016 7.64826 25.4384 7.3915 25.6393 7.18997C25.8401 6.98844 26.0961 6.8512 26.3747 6.7956C26.6534 6.73999 26.9422 6.76853 27.2047 6.8776C27.4672 6.98666 27.6915 7.17136 27.8493 7.40833C28.0072 7.64531 28.0914 7.92391 28.0914 8.20891C28.0904 8.59079 27.9388 8.95674 27.6696 9.22677C27.4004 9.49679 27.0356 9.64893 26.655 9.64992ZM38.5844 15.0443C36.9717 15.0443 35.6688 16.3728 35.6688 18.0121V29.6044C35.6688 31.2382 36.9771 32.5721 38.5844 32.5721C40.197 32.5721 41.5 31.2436 41.5 29.6044V18.0067C41.5053 16.3675 40.2024 15.0443 38.5844 15.0443ZM3.4156 15.0443C1.80294 15.0443 0.5 16.3728 0.5 18.0121V29.6044C0.5 31.2382 1.80828 32.5721 3.4156 32.5721C5.02826 32.5721 6.3312 31.2436 6.3312 29.6044V18.0067C6.3312 16.3675 5.02292 15.0443 3.4156 15.0443Z" fill="#302943"/>
</g>
<defs>
<clipPath id="clip0_30_1583">
<rect width="41" height="48" fill="white" transform="translate(0.5)"/>
</clipPath>
</defs>
</svg>
