<svg width="40" height="48" viewBox="0 0 40 48" fill="none" xmlns="http://www.w3.org/2000/svg">
<g clip-path="url(#clip0_30_1585)">
<path d="M10.1682 47.0809C9.22149 46.4516 8.38242 45.674 7.68326 44.778C6.9142 43.8532 6.20163 42.8829 5.54944 41.8724C4.01898 39.6321 2.81874 37.1837 1.98557 34.6023C0.984686 31.6037 0.5 28.7295 0.5 25.9184C0.5 22.7788 1.17976 20.0381 2.50927 17.7352C3.49482 15.9352 4.94383 14.431 6.70639 13.3782C8.41451 12.3182 10.3772 11.7381 12.3876 11.699C13.0913 11.699 13.8491 11.801 14.6534 11.9959C15.2312 12.1593 15.9349 12.4172 16.7948 12.738C17.8887 13.1593 18.4904 13.4172 18.6945 13.4802C19.3352 13.7141 19.874 13.816 20.2971 13.816C20.6182 13.816 21.0714 13.7141 21.5861 13.5581C21.8757 13.4562 22.4219 13.2763 23.2037 12.9419C23.978 12.6601 24.5873 12.4187 25.0719 12.2388C25.8147 12.0199 26.5335 11.8175 27.1743 11.7155C27.9339 11.5959 28.7048 11.5642 29.4716 11.6211C30.8006 11.7078 32.1096 11.9892 33.3566 12.4562C35.3959 13.2763 37.0451 14.5567 38.2725 16.3768C37.7537 16.6963 37.2668 17.0648 36.8185 17.4773C35.8425 18.3418 35.0112 19.3566 34.356 20.4834C33.4996 22.0233 33.0557 23.758 33.067 25.5195C33.0985 27.683 33.6538 29.5886 34.7477 31.2364C35.5519 32.4575 36.5971 33.5019 37.8194 34.3054C38.4451 34.7267 38.9838 35.0161 39.5 35.211C39.2584 35.9606 39.0003 36.6863 38.6957 37.406C38.0048 39.0198 37.1675 40.567 36.1942 42.0283C35.3269 43.2862 34.6471 44.2233 34.1309 44.847C33.3266 45.799 32.5523 46.5262 31.7705 47.033C30.9107 47.6027 29.8948 47.907 28.8624 47.907C28.1632 47.9339 27.4642 47.8493 26.7916 47.6567C26.2139 47.4618 25.6422 47.2504 25.0795 47.009C24.4944 46.7405 23.8912 46.5135 23.2743 46.3298C21.7492 45.9384 20.1503 45.9358 18.624 46.3223C17.9982 46.5022 17.3965 46.7121 16.8023 46.97C15.9664 47.3208 15.4112 47.5562 15.0901 47.6567C14.4494 47.8441 13.7846 47.961 13.1124 48C12.0724 48 11.1031 47.7031 10.1427 47.1019L10.1682 47.0809ZM23.8835 10.1757C22.524 10.8549 21.226 11.1443 19.937 11.0498C19.7344 9.75293 19.937 8.42605 20.4757 6.97323C20.9343 5.74241 21.612 4.60462 22.476 3.61481C23.3883 2.57283 24.4954 1.71876 25.7352 1.10048C27.0557 0.421302 28.3147 0.0539747 29.5182 0C29.6742 1.35836 29.5182 2.69424 29.0185 4.13806C28.556 5.41439 27.8796 6.6028 27.0182 7.65241C26.1389 8.69582 25.0599 9.5532 23.8445 10.1742L23.8835 10.1757Z" fill="#302943"/>
</g>
<defs>
<clipPath id="clip0_30_1585">
<rect width="39" height="48" fill="white" transform="translate(0.5)"/>
</clipPath>
</defs>
</svg>
