<svg width="20" height="20" viewBox="0 0 20 20" fill="none" xmlns="http://www.w3.org/2000/svg">
<path fill-rule="evenodd" clip-rule="evenodd" d="M10.0001 18.3333C14.6025 18.3333 18.3334 14.6024 18.3334 9.99999C18.3334 5.39762 14.6025 1.66666 10.0001 1.66666C5.39771 1.66666 1.66675 5.39762 1.66675 9.99999C1.66675 14.6024 5.39771 18.3333 10.0001 18.3333ZM13.8268 7.88373C14.0387 7.61126 13.9896 7.21859 13.7171 7.00667C13.4447 6.79475 13.052 6.84384 12.8401 7.11631L9.50091 11.4095C9.42665 11.505 9.28699 11.5174 9.19709 11.4365L7.08486 9.53546C6.82829 9.30455 6.43311 9.32535 6.20219 9.58192C5.97128 9.83848 5.99208 10.2337 6.24865 10.4646L8.36089 12.3656C8.99016 12.9319 9.96783 12.8452 10.4876 12.1769L13.8268 7.88373Z" fill="#28303F"/>
<path fill-rule="evenodd" clip-rule="evenodd" d="M10.0001 18.3333C14.6025 18.3333 18.3334 14.6024 18.3334 9.99999C18.3334 5.39762 14.6025 1.66666 10.0001 1.66666C5.39771 1.66666 1.66675 5.39762 1.66675 9.99999C1.66675 14.6024 5.39771 18.3333 10.0001 18.3333ZM13.8268 7.88373C14.0387 7.61126 13.9896 7.21859 13.7171 7.00667C13.4447 6.79475 13.052 6.84384 12.8401 7.11631L9.50091 11.4095C9.42665 11.505 9.28699 11.5174 9.19709 11.4365L7.08486 9.53546C6.82829 9.30455 6.43311 9.32535 6.20219 9.58192C5.97128 9.83848 5.99208 10.2337 6.24865 10.4646L8.36089 12.3656C8.99016 12.9319 9.96783 12.8452 10.4876 12.1769L13.8268 7.88373Z" fill="url(#paint0_linear_25_571)"/>
<defs>
<linearGradient id="paint0_linear_25_571" x1="1.66675" y1="9.99999" x2="18.3334" y2="9.99999" gradientUnits="userSpaceOnUse">
<stop stop-color="#FFC839"/>
<stop offset="1" stop-color="#FF9900"/>
</linearGradient>
</defs>
</svg>
