<svg width="22" height="22" viewBox="0 0 22 22" fill="none" xmlns="http://www.w3.org/2000/svg">
<path d="M17.5267 6.75749L13.2848 10.9998L17.5267 15.242C18.1577 15.8732 18.1577 16.8956 17.5267 17.5268C17.2115 17.8421 16.7982 17.9998 16.385 17.9998C15.9712 17.9998 15.5579 17.8423 15.2428 17.5268L11 13.2842L6.75749 17.5268C6.44227 17.842 6.02891 17.9998 5.61542 17.9998C5.20205 17.9998 4.78896 17.8423 4.47346 17.5268C3.8425 16.8959 3.8425 15.8734 4.47346 15.2419L8.71525 10.9998L4.47322 6.75749C3.84226 6.12652 3.84226 5.10382 4.47322 4.47286C5.10406 3.84238 6.12617 3.84238 6.75725 4.47286L11 8.7152L15.2424 4.47286C15.8736 3.84238 16.8958 3.84238 17.5265 4.47286C18.1577 5.10382 18.1577 6.12652 17.5267 6.75749Z" fill="#A5402D"/>
</svg>
