<svg width="55" height="99" viewBox="0 0 55 99" fill="none" xmlns="http://www.w3.org/2000/svg">
<path d="M2.29229 86.5472C-14.0208 60.0158 61.2229 -28.8903 86.1943 10.3485L85.8048 10.8918C55.6055 4.52306 4.11982 64.5282 11.6097 94.1686L10.8158 94.6365C9.84212 93.6404 3.25101 87.8904 2.30728 86.5472L2.29229 86.5472Z" fill="url(#paint0_radial_49_36934)"/>
<path d="M2.29216 86.5473C1.64803 85.687 1.12372 84.691 0.734247 83.6044L8.82339 90.9088L10.5461 89.128C10.6659 90.9994 11.0104 92.7047 11.6096 94.1837L10.8157 94.6516C9.842 93.6555 3.25089 87.9056 2.30716 86.5624L2.29216 86.5473Z" fill="url(#paint1_linear_49_36934)"/>
<path d="M10.1719 72.8589L2.08275 65.2074C4.77912 57.0125 9.81232 47.6254 16.763 38.2533L25.1666 45.8747L28.582 46.901C21.901 55.6693 17.7217 62.3399 14.6957 70.248L10.1868 72.8589L10.1719 72.8589Z" fill="url(#paint2_linear_49_36934)"/>
<path d="M46.0184 23.4935L37.5398 15.9324C45.7787 8.94492 53.9577 3.9646 61.0282 1.51972L69.2222 9.35239L65.6869 14.1214C58.2719 17.0794 56.1148 18.8904 47.7261 26.4816L46.0034 23.4935L46.0184 23.4935Z" fill="url(#paint3_linear_49_36934)"/>
<path d="M11.9243 95.8438C-7.78919 71.1536 59.0508 -6.05633 86.1493 10.3032C105.758 35.2048 39.1276 112.098 11.9243 95.8438Z" fill="url(#paint4_radial_49_36934)"/>
<path d="M25.451 81.5669C9.58736 68.2106 58.6463 11.6464 73.9108 25.712C89.7744 39.0683 40.7005 95.6174 25.451 81.5669Z" fill="url(#paint5_radial_49_36934)"/>
<path d="M47.3966 31.1451L45.8986 23.6444C54.0626 16.7173 62.1966 11.7822 69.2222 9.35245L64.5185 21.3655C59.3655 22.8898 53.3885 26.2704 47.3966 31.1451Z" fill="white"/>
<path d="M10.4563 72.6476C13.2126 64.483 18.2458 55.1713 25.1515 45.8747L31.6228 47.8215C26.3948 54.9298 22.7248 62.0833 20.9122 68.3012L10.4563 72.6476Z" fill="white"/>
<path d="M11.9244 95.8438C10.5312 94.6063 9.51261 93.0066 8.88345 91.0899L20.4479 81.2651C21.6463 84.525 24.4176 86.4718 27.9229 86.7737L19.1596 98.5C16.2685 98.3793 13.7969 97.519 11.9094 95.8589L11.9244 95.8438Z" fill="white"/>
<path d="M34.2591 94.5308L38.3187 84.6607C43.3219 82.5479 48.8495 78.9409 54.3172 74.1417L55.3657 79.6804C48.1604 86.2454 40.8802 91.3163 34.2591 94.5308Z" fill="white"/>
<path d="M28.0428 77.1149C14.6059 65.8413 57.0288 16.9437 69.9114 28.8662C83.3483 40.1398 40.9105 89.0374 28.0428 77.1149Z" stroke="white" stroke-width="0.98" stroke-miterlimit="10"/>
<path d="M25.4509 81.5669C25.1813 81.3255 24.9266 81.0689 24.687 80.7822C40.3409 91.8747 85.9994 39.2192 73.0568 25.0782C91.3771 37.7855 40.6405 95.7835 25.4509 81.5669Z" fill="url(#paint6_radial_49_36934)"/>
<path d="M39.9815 45.105C65.3423 16.5814 81.3108 34.7369 58.122 61.0873C35.3078 87.7697 15.3097 74.2323 39.9815 45.105Z" fill="url(#paint7_radial_49_36934)"/>
<path d="M42.0337 46.9161C66.7204 19.8413 80.397 35.3406 58.122 61.0873C35.7721 86.7736 18.7101 75.1831 42.0337 46.9161Z" fill="url(#paint8_radial_49_36934)"/>
<path d="M8.8837 91.0899C5.3185 64.2264 31.6531 32.4581 52.5349 18.2114C60.5941 12.7632 69.7468 8.17527 79.6035 7.69233C69.7917 8.38655 60.7588 13.0499 52.7446 18.5132C32.0275 33.0165 5.91769 64.1811 8.8837 91.0899Z" fill="white"/>
<path d="M40.5209 48.7271C65.8667 19.4036 80.7268 34.3597 58.6914 60.4082C56.4295 54.4318 51.4562 47.5952 40.5209 48.7271Z" fill="url(#paint9_linear_49_36934)"/>
<path d="M40.5209 48.7271C65.8667 19.4036 80.7268 34.3597 58.6914 60.4082C56.4295 54.4318 51.4562 47.5952 40.5209 48.7271Z" fill="url(#paint10_linear_49_36934)"/>
<defs>
<radialGradient id="paint0_radial_49_36934" cx="0" cy="0" r="1" gradientUnits="userSpaceOnUse" gradientTransform="translate(55.2015 52.0332) rotate(132.987) scale(31.5979 31.5823)">
<stop offset="0.17" stop-color="#BF01C6"/>
<stop offset="0.78" stop-color="#B1019E"/>
</radialGradient>
<linearGradient id="paint1_linear_49_36934" x1="8.1289" y1="86.7499" x2="5.43129" y2="89.6012" gradientUnits="userSpaceOnUse">
<stop stop-color="#D5D5D5"/>
<stop offset="0.29" stop-color="#A8A8A8"/>
<stop offset="1" stop-color="#919191"/>
</linearGradient>
<linearGradient id="paint2_linear_49_36934" x1="25.3993" y1="43.8161" x2="3.74611" y2="66.7032" gradientUnits="userSpaceOnUse">
<stop stop-color="#D5D5D5"/>
<stop offset="0.29" stop-color="#A8A8A8"/>
<stop offset="1" stop-color="#919191"/>
</linearGradient>
<linearGradient id="paint3_linear_49_36934" x1="62.7449" y1="3.04399" x2="43.996" y2="22.8613" gradientUnits="userSpaceOnUse">
<stop stop-color="#D5D5D5"/>
<stop offset="0.29" stop-color="#A8A8A8"/>
<stop offset="1" stop-color="#919191"/>
</linearGradient>
<radialGradient id="paint4_radial_49_36934" cx="0" cy="0" r="1" gradientUnits="userSpaceOnUse" gradientTransform="translate(54.3631 44.8636) rotate(132.987) scale(51.2394 51.2141)">
<stop offset="0.17" stop-color="#BF01C6"/>
<stop offset="0.78" stop-color="#B1019E"/>
</radialGradient>
<radialGradient id="paint5_radial_49_36934" cx="0" cy="0" r="1" gradientUnits="userSpaceOnUse" gradientTransform="translate(49.6963 53.5741) rotate(132.987) scale(28.3644 28.3504)">
<stop offset="0.17" stop-color="#BF01C6"/>
<stop offset="0.78" stop-color="#9E018B"/>
</radialGradient>
<radialGradient id="paint6_radial_49_36934" cx="0" cy="0" r="1" gradientUnits="userSpaceOnUse" gradientTransform="translate(54.5016 58.1412) rotate(132.987) scale(26.8755 26.8622)">
<stop offset="0.17" stop-color="#BF01C6"/>
<stop offset="0.78" stop-color="#800169"/>
</radialGradient>
<radialGradient id="paint7_radial_49_36934" cx="0" cy="0" r="1" gradientUnits="userSpaceOnUse" gradientTransform="translate(49.0862 53.0383) rotate(132.987) scale(21.2357 21.2252)">
<stop offset="0.17" stop-color="#BF01C6"/>
<stop offset="0.78" stop-color="#800169"/>
</radialGradient>
<radialGradient id="paint8_radial_49_36934" cx="0" cy="0" r="1" gradientUnits="userSpaceOnUse" gradientTransform="translate(59.3391 41.3108) rotate(132.987) scale(51.089 51.0637)">
<stop offset="0.17" stop-color="#BF01C6"/>
<stop offset="0.78" stop-color="#B1019E"/>
</radialGradient>
<linearGradient id="paint9_linear_49_36934" x1="75.1798" y1="23.2139" x2="54.4797" y2="48.1835" gradientUnits="userSpaceOnUse">
<stop stop-color="#C32CFE"/>
<stop offset="1" stop-color="#C32CFE" stop-opacity="0"/>
</linearGradient>
<linearGradient id="paint10_linear_49_36934" x1="73.9087" y1="25.6137" x2="51.5012" y2="51.8836" gradientUnits="userSpaceOnUse">
<stop stop-color="#C32CFE"/>
<stop offset="1" stop-color="#C32CFE" stop-opacity="0"/>
</linearGradient>
</defs>
</svg>
