<svg width="120" height="28" viewBox="0 0 120 28" fill="none" xmlns="http://www.w3.org/2000/svg">
<g clip-path="url(#clip0_30_1615)">
<path d="M22.4961 26.5H16.3855L7.35094 10.5742V26.5H1.20532V0.90625H7.35094L16.368 16.832V0.90625H22.4961V26.5Z" fill="#302943"/>
<path d="M46.7165 14.2305C46.7165 16.7266 46.2555 18.9355 45.3333 20.8574C44.4112 22.7793 43.098 24.2617 41.3938 25.3047C39.7013 26.3359 37.7695 26.8516 35.5984 26.8516C33.4273 26.8516 31.5013 26.3535 29.8205 25.3574C28.1396 24.3496 26.8265 22.9141 25.881 21.0508C24.9472 19.1875 24.4569 17.0488 24.4102 14.6348V13.1934C24.4102 10.6855 24.8655 8.47656 25.7759 6.56641C26.6981 4.64453 28.0112 3.16211 29.7154 2.11914C31.4313 1.07617 33.3806 0.554688 35.5634 0.554688C37.7228 0.554688 39.6488 1.07031 41.3413 2.10156C43.0338 3.13281 44.347 4.60352 45.2808 6.51367C46.2263 8.41211 46.7049 10.5918 46.7165 13.0527V14.2305ZM40.4659 13.1582C40.4659 10.6152 40.0398 8.6875 39.1877 7.375C38.3473 6.05078 37.1392 5.38867 35.5634 5.38867C32.4818 5.38867 30.8535 7.70898 30.6784 12.3496L30.6609 14.2305C30.6609 16.7383 31.0753 18.666 31.904 20.0137C32.7328 21.3613 33.9642 22.0352 35.5984 22.0352C37.1509 22.0352 38.3473 21.373 39.1877 20.0488C40.0281 18.7246 40.4542 16.8203 40.4659 14.3359V13.1582Z" fill="#302943"/>
<path d="M57.2637 8.93652C57.2637 8.49902 57.1094 8.16178 56.8007 7.9248C56.4966 7.68783 55.945 7.44857 55.1461 7.20703C54.3472 6.96549 53.7117 6.69661 53.2396 6.40039C52.3363 5.83073 51.8846 5.08789 51.8846 4.17188C51.8846 3.36979 52.2092 2.70898 52.8583 2.18945C53.512 1.66992 54.3585 1.41016 55.398 1.41016C56.088 1.41016 56.7031 1.53776 57.2433 1.79297C57.7835 2.04818 58.2079 2.41276 58.5166 2.88672C58.8252 3.35612 58.9796 3.87793 58.9796 4.45215H57.2637C57.2637 3.93262 57.1003 3.52702 56.7735 3.23535C56.4512 2.93913 55.9882 2.79102 55.3844 2.79102C54.8215 2.79102 54.3835 2.91178 54.0703 3.15332C53.7616 3.39486 53.6073 3.7321 53.6073 4.16504C53.6073 4.52962 53.7752 4.83496 54.1111 5.08105C54.4471 5.32259 55.0009 5.55957 55.7725 5.79199C56.5442 6.01986 57.1638 6.2819 57.6314 6.57812C58.0989 6.86979 58.4417 7.20703 58.6596 7.58984C58.8774 7.9681 58.9864 8.41244 58.9864 8.92285C58.9864 9.75228 58.6686 10.4131 58.0331 10.9053C57.4022 11.3929 56.5442 11.6367 55.4593 11.6367C54.7421 11.6367 54.0816 11.5046 53.4779 11.2402C52.8787 10.9714 52.4112 10.6022 52.0753 10.1328C51.7439 9.66341 51.5782 9.11654 51.5782 8.49219H53.3009C53.3009 9.05729 53.487 9.49479 53.8592 9.80469C54.2314 10.1146 54.7648 10.2695 55.4593 10.2695C56.0585 10.2695 56.5079 10.1488 56.8075 9.90723C57.1116 9.66113 57.2637 9.33756 57.2637 8.93652Z" fill="#302943"/>
<path d="M63.0575 7.80175V11.5H61.3348V1.54688H65.1274C66.235 1.54688 67.1133 1.83626 67.7625 2.41504C68.4161 2.99381 68.743 3.75943 68.743 4.7119C68.743 5.68716 68.4229 6.44595 67.7829 6.98827C67.1474 7.53059 66.2554 7.80175 65.107 7.80175H63.0575ZM63.0575 6.41405H65.1274C65.7402 6.41405 66.2078 6.2705 66.53 5.98339C66.8523 5.69172 67.0135 5.27246 67.0135 4.72559C67.0135 4.18783 66.8501 3.75943 66.5232 3.44042C66.1964 3.11685 65.747 2.95052 65.1751 2.94141H63.0575V6.41405Z" fill="#302943"/>
<path d="M74.3255 6.26367L76.6065 1.54688H78.5131L75.1903 7.83593V11.5H73.4608V7.83593L70.1312 1.54688H72.0445L74.3255 6.26367Z" fill="#302943"/>
<path d="M88.324 9.03905L89.8492 1.54688H91.5583L89.2705 11.5H87.6227L85.7366 4.2334L83.8097 11.5H82.1551L79.8672 1.54688H81.5763L83.1151 9.02538L85.008 1.54688H86.4515L88.324 9.03905Z" fill="#302943"/>
<path d="M98.9044 9.18262H95.064L94.2606 11.5H92.4698L96.2147 1.54688H97.7604L101.512 11.5H99.7146L98.9044 9.18262ZM95.5475 7.78808H98.4209L96.9842 3.65917L95.5475 7.78808Z" fill="#302943"/>
<path d="M107.122 7.66504H105.202V11.5H103.479V1.54688H106.965C108.109 1.54688 108.992 1.80435 109.614 2.31933C110.236 2.83431 110.547 3.57942 110.547 4.55468C110.547 5.22004 110.386 5.77831 110.064 6.22948C109.746 6.6761 109.301 7.02017 108.729 7.26171L110.956 11.4111V11.5H109.11L107.122 7.66504ZM105.202 6.27734H106.972C107.553 6.27734 108.007 6.13151 108.334 5.83984C108.661 5.54362 108.824 5.1403 108.824 4.62987C108.824 4.09667 108.672 3.68424 108.368 3.39258C108.068 3.10091 107.619 2.95052 107.02 2.94141H105.202V6.27734Z" fill="#302943"/>
<path d="M118.812 7.05663H114.74V10.1191H119.5V11.5H113.018V1.54688H119.452V2.94141H114.74V5.68944H118.812V7.05663Z" fill="#302943"/>
<path d="M57.6315 23.1826H53.7912L52.9878 25.5H51.197L54.9419 15.5469H56.4876L60.2393 25.5H58.4418L57.6315 23.1826ZM54.2747 21.7881H57.1481L55.7114 17.6592L54.2747 21.7881Z" fill="#302943"/>
<path d="M62.2063 25.5V15.5469H65.1342C66.0103 15.5469 66.7865 15.7428 67.4629 16.1348C68.1438 16.5267 68.6703 17.0827 69.0426 17.8027C69.4148 18.5228 69.6009 19.3477 69.6009 20.2773V20.7764C69.6009 21.7197 69.4125 22.5492 69.0358 23.2646C68.6635 23.9801 68.1302 24.5316 67.4356 24.9189C66.7457 25.3063 65.9535 25.5 65.0593 25.5H62.2063ZM63.929 16.9414V24.1191H65.0525C65.9558 24.1191 66.6481 23.8366 67.1292 23.2715C67.6149 22.7018 67.8623 21.8861 67.8714 20.8242V20.2705C67.8714 19.1904 67.6376 18.3656 67.1701 17.7959C66.7025 17.2262 66.0239 16.9414 65.1342 16.9414H63.929Z" fill="#302943"/>
<path d="M79.9294 23.0391L81.4547 15.5469H83.1637L80.8759 25.5H79.2281L77.342 18.2334L75.4151 25.5H73.7605L71.4727 15.5469H73.1817L74.7206 23.0254L76.6135 15.5469H78.057L79.9294 23.0391Z" fill="#302943"/>
<path d="M90.5097 23.1826H86.6694L85.866 25.5H84.0752L87.8202 15.5469H89.3658L93.1176 25.5H91.32L90.5097 23.1826ZM87.1529 21.7881H90.0263L88.5896 17.6592L87.1529 21.7881Z" fill="#302943"/>
<path d="M98.7274 21.665H96.8072V25.5H95.0845V15.5469H98.5708C99.7147 15.5469 100.598 15.8044 101.219 16.3193C101.841 16.8343 102.152 17.5794 102.152 18.5547C102.152 19.2201 101.991 19.7783 101.669 20.2295C101.351 20.6761 100.906 21.0202 100.334 21.2617L102.561 25.4111V25.5H100.716L98.7274 21.665ZM96.8072 20.2773H98.5776C99.1586 20.2773 99.6125 20.1315 99.9394 19.8398C100.266 19.5436 100.43 19.1403 100.43 18.6299C100.43 18.0967 100.277 17.6842 99.9734 17.3926C99.6738 17.1009 99.2244 16.9505 98.6252 16.9414H96.8072V20.2773Z" fill="#302943"/>
<path d="M110.418 21.0566H106.346V24.1191H111.105V25.5H104.623V15.5469H111.058V16.9414H106.346V19.6895H110.418V21.0566Z" fill="#302943"/>
</g>
<defs>
<clipPath id="clip0_30_1615">
<rect width="119" height="27" fill="white" transform="translate(0.5 0.5)"/>
</clipPath>
</defs>
</svg>
