<svg width="20" height="20" viewBox="0 0 20 20" fill="none" xmlns="http://www.w3.org/2000/svg">
<path fill-rule="evenodd" clip-rule="evenodd" d="M17.3977 12.0657C18.6453 10.8715 18.6453 8.79515 17.3977 7.60091C15.6779 5.95458 13.0036 3.99998 10.0001 3.99998C6.99658 3.99998 4.32226 5.95458 2.60242 7.60091C1.35486 8.79516 1.35486 10.8715 2.60242 12.0657C4.32226 13.7121 6.99658 15.6667 10.0001 15.6667C13.0036 15.6667 15.6779 13.7121 17.3977 12.0657ZM10.0001 12.3333C11.3808 12.3333 12.5001 11.214 12.5001 9.83332C12.5001 8.45261 11.3808 7.33332 10.0001 7.33332C8.61934 7.33332 7.50006 8.45261 7.50006 9.83332C7.50006 11.214 8.61934 12.3333 10.0001 12.3333Z" fill="white" fill-opacity="0.5"/>
</svg>
