<svg width="58" height="48" viewBox="0 0 58 48" fill="none" xmlns="http://www.w3.org/2000/svg">
<g clip-path="url(#clip0_30_1589)">
<mask id="mask0_30_1589" style="mask-type:alpha" maskUnits="userSpaceOnUse" x="5" y="0" width="49" height="48">
<path d="M51.0155 24C51.0155 35.8915 41.451 45.5 29.6911 45.5C17.9312 45.5 8.3667 35.8915 8.3667 24C8.3667 20.4407 9.22263 17.0907 10.7354 14.1408C14.2873 7.2146 21.4498 2.5 29.6911 2.5C41.451 2.5 51.0155 12.1085 51.0155 24Z" stroke="white" stroke-width="5"/>
</mask>
<g mask="url(#mask0_30_1589)">
<path d="M-1.08203 13.5L38.6253 14H60.4644V-1H-1.08203V13.5Z" fill="#302943"/>
<path d="M-1.08203 34H26.7131H60.4644V49.5H-1.08203V34Z" fill="#302943"/>
</g>
<mask id="mask1_30_1589" style="mask-type:alpha" maskUnits="userSpaceOnUse" x="18" y="5" width="25" height="38">
<path d="M20.7571 41.0001L40.1144 7" stroke="white" stroke-width="5"/>
</mask>
<g mask="url(#mask1_30_1589)">
<path d="M-1.08191 13.5L38.6255 14H60.4645V-1H-1.08191V13.5Z" fill="#302943"/>
<path d="M-1.08191 34H26.7132H60.4645V49.5H-1.08191V34Z" fill="#302943"/>
</g>
<path d="M7.83995 26.4097C7.83995 25.9334 7.67111 25.5623 7.33343 25.2964C7.00189 25.0304 6.41555 24.7552 5.57442 24.4707C4.73329 24.1862 4.04565 23.911 3.5115 23.645C1.77398 22.7853 0.905217 21.604 0.905217 20.1011C0.905217 19.3527 1.1201 18.694 1.54988 18.125C1.98579 17.5498 2.59976 17.1045 3.39177 16.7891C4.18379 16.4674 5.07404 16.3066 6.06252 16.3066C7.02645 16.3066 7.88907 16.4798 8.65038 16.8262C9.41784 17.1725 10.0134 17.6673 10.437 18.3105C10.8607 18.9476 11.0725 19.6774 11.0725 20.5H7.84916C7.84916 19.9495 7.68032 19.5228 7.34264 19.2197C7.0111 18.9167 6.55983 18.7651 5.98885 18.7651C5.41172 18.7651 4.95431 18.895 4.61663 19.1548C4.28509 19.4084 4.11932 19.7331 4.11932 20.1289C4.11932 20.4753 4.30351 20.7907 4.67189 21.0752C5.04027 21.3535 5.688 21.6442 6.61509 21.9473C7.54218 22.2441 8.30349 22.5658 8.89904 22.9121C10.348 23.7533 11.0725 24.9129 11.0725 26.3911C11.0725 27.5724 10.6304 28.5002 9.74631 29.1743C8.8622 29.8485 7.64962 30.1855 6.10857 30.1855C5.02185 30.1855 4.03644 29.9907 3.15233 29.6011C2.27436 29.2052 1.61128 28.6672 1.16308 27.9868C0.721027 27.3003 0.5 26.5117 0.5 25.6211H3.74173C3.74173 26.3447 3.92592 26.8797 4.2943 27.2261C4.66882 27.5662 5.27358 27.7363 6.10857 27.7363C6.64272 27.7363 7.06328 27.6219 7.37027 27.3931C7.68339 27.158 7.83995 26.8302 7.83995 26.4097Z" fill="#302943"/>
<path d="M18.226 25.417V30H14.9935V16.4922H20.3442C21.3695 16.4922 22.2751 16.6839 23.061 17.0674C23.853 17.4447 24.4639 17.9858 24.8937 18.6909C25.3296 19.3898 25.5476 20.1846 25.5476 21.0752C25.5476 22.3926 25.0779 23.4471 24.1385 24.2388C23.2053 25.0243 21.9221 25.417 20.2889 25.417H18.226ZM18.226 22.9028H20.3442C20.9704 22.9028 21.4463 22.7451 21.7717 22.4297C22.1032 22.1143 22.269 21.6689 22.269 21.0938C22.269 20.4629 22.1001 19.9588 21.7625 19.5815C21.4248 19.2043 20.9643 19.0125 20.381 19.0063H18.226V22.9028Z" fill="#302943"/>
<path d="M35.5192 27.4766H31.0894L30.3158 30H26.8623L31.7802 16.4922H34.8193L39.774 30H36.302L35.5192 27.4766ZM31.863 24.9624H34.7456L33.2997 20.2773L31.863 24.9624Z" fill="#302943"/>
<path d="M47.2683 16.4922L50.2614 25.8901L53.2452 16.4922H57.5V30H54.2583V26.8457L54.5714 20.3887L51.3297 30H49.1931L45.9421 20.3794L46.2552 26.8457V30H43.0227V16.4922H47.2683Z" fill="#302943"/>
</g>
<defs>
<clipPath id="clip0_30_1589">
<rect width="57" height="48" fill="white" transform="translate(0.5)"/>
</clipPath>
</defs>
</svg>
