<svg width="208" height="218" viewBox="0 0 208 218" fill="none" xmlns="http://www.w3.org/2000/svg">
<g opacity="0.1" filter="url(#filter0_f_25_1421)">
<g filter="url(#filter1_bdi_25_1421)">
<path d="M168 154V98H124H84H40V154C40 171.673 54.3269 186 72 186H136C153.673 186 168 171.673 168 154Z" fill="url(#paint0_linear_25_1421)" shape-rendering="crispEdges"/>
<path d="M124 99H167V154C167 171.121 153.121 185 136 185H72C54.8792 185 41 171.121 41 154V99H84H124Z" stroke="url(#paint1_linear_25_1421)" stroke-opacity="0.7" stroke-width="2" shape-rendering="crispEdges"/>
</g>
<g filter="url(#filter2_bdi_25_1421)">
<path d="M164 58H44C37.3726 58 32 63.3726 32 70V94C32 100.627 37.3726 106 44 106H68H140H164C170.627 106 176 100.627 176 94V70C176 63.3726 170.627 58 164 58Z" fill="url(#paint2_linear_25_1421)" shape-rendering="crispEdges"/>
<path d="M44 59H164C170.075 59 175 63.9249 175 70V94C175 100.075 170.075 105 164 105H140H68H44C37.9249 105 33 100.075 33 94V70C33 63.9249 37.9249 59 44 59Z" stroke="url(#paint3_linear_25_1421)" stroke-opacity="0.7" stroke-width="2" shape-rendering="crispEdges"/>
</g>
<path d="M104 46C104 34.9543 112.954 26 124 26H128C136.837 26 144 33.1634 144 42V42C144 50.8366 136.837 58 128 58H104V46Z" stroke="#FFBD30" stroke-width="12"/>
<path d="M104 46C104 34.9543 95.0457 26 84 26H80C71.1634 26 64 33.1634 64 42V42C64 50.8366 71.1634 58 80 58H104V46Z" stroke="#FFBD30" stroke-width="12"/>
<path d="M124 58L124 186L84 186L84 58L124 58Z" fill="#FFBD30"/>
</g>
<defs>
<filter id="filter0_f_25_1421" x="-12" y="-10" width="232" height="232" filterUnits="userSpaceOnUse" color-interpolation-filters="sRGB">
<feFlood flood-opacity="0" result="BackgroundImageFix"/>
<feBlend mode="normal" in="SourceGraphic" in2="BackgroundImageFix" result="shape"/>
<feGaussianBlur stdDeviation="10" result="effect1_foregroundBlur_25_1421"/>
</filter>
<filter id="filter1_bdi_25_1421" x="8" y="66" width="192" height="152" filterUnits="userSpaceOnUse" color-interpolation-filters="sRGB">
<feFlood flood-opacity="0" result="BackgroundImageFix"/>
<feGaussianBlur in="BackgroundImageFix" stdDeviation="8"/>
<feComposite in2="SourceAlpha" operator="in" result="effect1_backgroundBlur_25_1421"/>
<feColorMatrix in="SourceAlpha" type="matrix" values="0 0 0 0 0 0 0 0 0 0 0 0 0 0 0 0 0 0 127 0" result="hardAlpha"/>
<feOffset/>
<feGaussianBlur stdDeviation="16"/>
<feComposite in2="hardAlpha" operator="out"/>
<feColorMatrix type="matrix" values="0 0 0 0 1 0 0 0 0 0.741176 0 0 0 0 0.188235 0 0 0 0.1 0"/>
<feBlend mode="normal" in2="effect1_backgroundBlur_25_1421" result="effect2_dropShadow_25_1421"/>
<feBlend mode="normal" in="SourceGraphic" in2="effect2_dropShadow_25_1421" result="shape"/>
<feColorMatrix in="SourceAlpha" type="matrix" values="0 0 0 0 0 0 0 0 0 0 0 0 0 0 0 0 0 0 127 0" result="hardAlpha"/>
<feOffset/>
<feGaussianBlur stdDeviation="12"/>
<feComposite in2="hardAlpha" operator="arithmetic" k2="-1" k3="1"/>
<feColorMatrix type="matrix" values="0 0 0 0 1 0 0 0 0 0.741176 0 0 0 0 0.188235 0 0 0 0.38 0"/>
<feBlend mode="normal" in2="shape" result="effect3_innerShadow_25_1421"/>
</filter>
<filter id="filter2_bdi_25_1421" x="0" y="26" width="208" height="112" filterUnits="userSpaceOnUse" color-interpolation-filters="sRGB">
<feFlood flood-opacity="0" result="BackgroundImageFix"/>
<feGaussianBlur in="BackgroundImageFix" stdDeviation="8"/>
<feComposite in2="SourceAlpha" operator="in" result="effect1_backgroundBlur_25_1421"/>
<feColorMatrix in="SourceAlpha" type="matrix" values="0 0 0 0 0 0 0 0 0 0 0 0 0 0 0 0 0 0 127 0" result="hardAlpha"/>
<feOffset/>
<feGaussianBlur stdDeviation="16"/>
<feComposite in2="hardAlpha" operator="out"/>
<feColorMatrix type="matrix" values="0 0 0 0 1 0 0 0 0 0.741176 0 0 0 0 0.188235 0 0 0 0.1 0"/>
<feBlend mode="normal" in2="effect1_backgroundBlur_25_1421" result="effect2_dropShadow_25_1421"/>
<feBlend mode="normal" in="SourceGraphic" in2="effect2_dropShadow_25_1421" result="shape"/>
<feColorMatrix in="SourceAlpha" type="matrix" values="0 0 0 0 0 0 0 0 0 0 0 0 0 0 0 0 0 0 127 0" result="hardAlpha"/>
<feOffset/>
<feGaussianBlur stdDeviation="12"/>
<feComposite in2="hardAlpha" operator="arithmetic" k2="-1" k3="1"/>
<feColorMatrix type="matrix" values="0 0 0 0 1 0 0 0 0 0.741176 0 0 0 0 0.188235 0 0 0 0.38 0"/>
<feBlend mode="normal" in2="shape" result="effect3_innerShadow_25_1421"/>
</filter>
<linearGradient id="paint0_linear_25_1421" x1="-1.6" y1="62.8" x2="156.868" y2="268.381" gradientUnits="userSpaceOnUse">
<stop stop-color="#FFBD30" stop-opacity="0.26"/>
<stop offset="0.505108" stop-color="#FFBD30" stop-opacity="0.124214"/>
<stop offset="0.505208" stop-color="#FFBD30" stop-opacity="0.12"/>
<stop offset="1" stop-color="#FFBD30" stop-opacity="0.04"/>
</linearGradient>
<linearGradient id="paint1_linear_25_1421" x1="43.2" y1="111.2" x2="119.259" y2="206.027" gradientUnits="userSpaceOnUse">
<stop stop-color="white" stop-opacity="0.15"/>
<stop offset="1" stop-color="white" stop-opacity="0.44"/>
</linearGradient>
<linearGradient id="paint2_linear_25_1421" x1="-14.8" y1="38.8" x2="43.8223" y2="195.654" gradientUnits="userSpaceOnUse">
<stop stop-color="#FFBD30" stop-opacity="0.26"/>
<stop offset="0.505108" stop-color="#FFBD30" stop-opacity="0.124214"/>
<stop offset="0.505208" stop-color="#FFBD30" stop-opacity="0.12"/>
<stop offset="1" stop-color="#FFBD30" stop-opacity="0.04"/>
</linearGradient>
<linearGradient id="paint3_linear_25_1421" x1="35.6" y1="65.2" x2="64.3131" y2="139.034" gradientUnits="userSpaceOnUse">
<stop stop-color="white" stop-opacity="0.15"/>
<stop offset="1" stop-color="white" stop-opacity="0.44"/>
</linearGradient>
</defs>
</svg>
