<svg width="176" height="176" viewBox="0 0 176 176" fill="none" xmlns="http://www.w3.org/2000/svg">
<g opacity="0.1" filter="url(#filter0_f_49_37171)">
<g filter="url(#filter1_d_49_37171)">
<path d="M22.9628 91.4264L42.8501 71.539C44.2412 70.148 46.206 69.4931 48.1534 69.7713L65.6489 71.4319C66.1993 71.4841 66.5321 72.0656 66.2983 72.5666L53.7267 99.5057C52.281 102.604 49.0264 104.441 45.6271 104.077L26.4983 102.033C21.3998 101.305 19.321 95.0682 22.9628 91.4264Z" fill="#FFBD30"/>
</g>
<g filter="url(#filter2_d_49_37171)">
<path d="M84.833 153.3L104.72 133.412C106.111 132.021 106.766 130.056 106.488 128.109L104.828 110.613C104.775 110.063 104.194 109.73 103.693 109.964L76.7537 122.536C73.6558 123.981 71.8188 127.236 72.1821 130.635L74.2264 149.764C74.9548 154.863 81.1912 156.941 84.833 153.3Z" fill="#FFBD30"/>
</g>
<g filter="url(#filter3_bdi_49_37171)">
<path d="M51.0077 110.634L65.6255 125.252C69.2223 128.849 74.6261 129.908 79.1933 127.669C90.0212 122.36 109.928 111.5 122.398 98.0555C136.298 83.0687 141.468 59.3343 143.382 44.7019C144.302 37.6681 138.591 31.9579 131.558 32.8778C116.925 34.7915 93.1908 39.9616 78.204 53.8614C64.7591 66.331 53.8992 86.2383 48.5908 97.0662C46.3517 101.633 47.4109 107.037 51.0077 110.634Z" fill="url(#paint0_linear_49_37171)" shape-rendering="crispEdges"/>
<path d="M66.3326 124.545L51.7148 109.927C48.4011 106.613 47.4496 101.666 49.4888 97.5064C54.792 86.6888 65.5851 66.9289 78.884 54.5946C93.6242 40.9235 117.079 35.78 131.687 33.8694C138.07 33.0346 143.225 38.1897 142.39 44.5722C140.48 59.1808 135.336 82.6353 121.665 97.3755C109.331 110.674 89.5707 121.467 78.7531 126.771C74.5936 128.81 69.6463 127.858 66.3326 124.545Z" stroke="url(#paint1_linear_49_37171)" stroke-opacity="0.7" stroke-width="2" shape-rendering="crispEdges"/>
</g>
<g filter="url(#filter4_d_49_37171)">
<path d="M93.6712 64.9106C88.7896 69.7922 88.7896 77.7067 93.6712 82.5883C98.5527 87.4698 106.467 87.4698 111.349 82.5883C116.23 77.7067 116.23 69.7922 111.349 64.9106C106.467 60.0291 98.5527 60.0291 93.6712 64.9106Z" fill="#FFBD30"/>
</g>
<g filter="url(#filter5_d_49_37171)">
<path d="M45.0576 131.2L27.3799 148.878M31.7993 117.942L22.9605 126.781M58.3158 144.459L49.477 153.297" stroke="#FFBD30" stroke-width="12" stroke-linecap="round" shape-rendering="crispEdges"/>
</g>
</g>
<defs>
<filter id="filter0_f_49_37171" x="-2" y="8" width="170" height="170" filterUnits="userSpaceOnUse" color-interpolation-filters="sRGB">
<feFlood flood-opacity="0" result="BackgroundImageFix"/>
<feBlend mode="normal" in="SourceGraphic" in2="BackgroundImageFix" result="shape"/>
<feGaussianBlur stdDeviation="5" result="effect1_foregroundBlur_49_37171"/>
</filter>
<filter id="filter1_d_49_37171" x="5.12524" y="53.7084" width="77.2488" height="66.4146" filterUnits="userSpaceOnUse" color-interpolation-filters="sRGB">
<feFlood flood-opacity="0" result="BackgroundImageFix"/>
<feColorMatrix in="SourceAlpha" type="matrix" values="0 0 0 0 0 0 0 0 0 0 0 0 0 0 0 0 0 0 127 0" result="hardAlpha"/>
<feOffset/>
<feGaussianBlur stdDeviation="8"/>
<feComposite in2="hardAlpha" operator="out"/>
<feColorMatrix type="matrix" values="0 0 0 0 1 0 0 0 0 0.741176 0 0 0 0 0.188235 0 0 0 0.35 0"/>
<feBlend mode="normal" in2="BackgroundImageFix" result="effect1_dropShadow_49_37171"/>
<feBlend mode="normal" in="SourceGraphic" in2="effect1_dropShadow_49_37171" result="shape"/>
</filter>
<filter id="filter2_d_49_37171" x="56.1365" y="93.8883" width="66.4146" height="77.2489" filterUnits="userSpaceOnUse" color-interpolation-filters="sRGB">
<feFlood flood-opacity="0" result="BackgroundImageFix"/>
<feColorMatrix in="SourceAlpha" type="matrix" values="0 0 0 0 0 0 0 0 0 0 0 0 0 0 0 0 0 0 127 0" result="hardAlpha"/>
<feOffset/>
<feGaussianBlur stdDeviation="8"/>
<feComposite in2="hardAlpha" operator="out"/>
<feColorMatrix type="matrix" values="0 0 0 0 1 0 0 0 0 0.741176 0 0 0 0 0.188235 0 0 0 0.35 0"/>
<feBlend mode="normal" in2="BackgroundImageFix" result="effect1_dropShadow_49_37171"/>
<feBlend mode="normal" in="SourceGraphic" in2="effect1_dropShadow_49_37171" result="shape"/>
</filter>
<filter id="filter3_bdi_49_37171" x="15.4192" y="0.780273" width="160.06" height="160.06" filterUnits="userSpaceOnUse" color-interpolation-filters="sRGB">
<feFlood flood-opacity="0" result="BackgroundImageFix"/>
<feGaussianBlur in="BackgroundImageFix" stdDeviation="8"/>
<feComposite in2="SourceAlpha" operator="in" result="effect1_backgroundBlur_49_37171"/>
<feColorMatrix in="SourceAlpha" type="matrix" values="0 0 0 0 0 0 0 0 0 0 0 0 0 0 0 0 0 0 127 0" result="hardAlpha"/>
<feOffset/>
<feGaussianBlur stdDeviation="16"/>
<feComposite in2="hardAlpha" operator="out"/>
<feColorMatrix type="matrix" values="0 0 0 0 1 0 0 0 0 0.741176 0 0 0 0 0.188235 0 0 0 0.1 0"/>
<feBlend mode="normal" in2="effect1_backgroundBlur_49_37171" result="effect2_dropShadow_49_37171"/>
<feBlend mode="normal" in="SourceGraphic" in2="effect2_dropShadow_49_37171" result="shape"/>
<feColorMatrix in="SourceAlpha" type="matrix" values="0 0 0 0 0 0 0 0 0 0 0 0 0 0 0 0 0 0 127 0" result="hardAlpha"/>
<feOffset/>
<feGaussianBlur stdDeviation="12"/>
<feComposite in2="hardAlpha" operator="arithmetic" k2="-1" k3="1"/>
<feColorMatrix type="matrix" values="0 0 0 0 1 0 0 0 0 0.741176 0 0 0 0 0.188235 0 0 0 0.38 0"/>
<feBlend mode="normal" in2="shape" result="effect3_innerShadow_49_37171"/>
</filter>
<filter id="filter4_d_49_37171" x="74.01" y="45.2494" width="57" height="57" filterUnits="userSpaceOnUse" color-interpolation-filters="sRGB">
<feFlood flood-opacity="0" result="BackgroundImageFix"/>
<feColorMatrix in="SourceAlpha" type="matrix" values="0 0 0 0 0 0 0 0 0 0 0 0 0 0 0 0 0 0 127 0" result="hardAlpha"/>
<feOffset/>
<feGaussianBlur stdDeviation="8"/>
<feComposite in2="hardAlpha" operator="out"/>
<feColorMatrix type="matrix" values="0 0 0 0 1 0 0 0 0 0.741176 0 0 0 0 0.188235 0 0 0 0.35 0"/>
<feBlend mode="normal" in2="BackgroundImageFix" result="effect1_dropShadow_49_37171"/>
<feBlend mode="normal" in="SourceGraphic" in2="effect1_dropShadow_49_37171" result="shape"/>
</filter>
<filter id="filter5_d_49_37171" x="0.960449" y="95.942" width="79.3555" height="79.3553" filterUnits="userSpaceOnUse" color-interpolation-filters="sRGB">
<feFlood flood-opacity="0" result="BackgroundImageFix"/>
<feColorMatrix in="SourceAlpha" type="matrix" values="0 0 0 0 0 0 0 0 0 0 0 0 0 0 0 0 0 0 127 0" result="hardAlpha"/>
<feOffset/>
<feGaussianBlur stdDeviation="8"/>
<feComposite in2="hardAlpha" operator="out"/>
<feColorMatrix type="matrix" values="0 0 0 0 1 0 0 0 0 0.741176 0 0 0 0 0.188235 0 0 0 0.35 0"/>
<feBlend mode="normal" in2="BackgroundImageFix" result="effect1_dropShadow_49_37171"/>
<feBlend mode="normal" in="SourceGraphic" in2="effect1_dropShadow_49_37171" result="shape"/>
</filter>
<linearGradient id="paint0_linear_49_37171" x1="136.786" y1="-33.5674" x2="198.814" y2="143.286" gradientUnits="userSpaceOnUse">
<stop stop-color="#FFBD30" stop-opacity="0.26"/>
<stop offset="0.505108" stop-color="#FFBD30" stop-opacity="0.124214"/>
<stop offset="0.505208" stop-color="#FFBD30" stop-opacity="0.12"/>
<stop offset="1" stop-color="#FFBD30" stop-opacity="0.04"/>
</linearGradient>
<linearGradient id="paint1_linear_49_37171" x1="107.105" y1="27.1007" x2="136.899" y2="108.055" gradientUnits="userSpaceOnUse">
<stop stop-color="white" stop-opacity="0.15"/>
<stop offset="1" stop-color="white" stop-opacity="0.44"/>
</linearGradient>
</defs>
</svg>
