<svg width="49" height="48" viewBox="0 0 49 48" fill="none" xmlns="http://www.w3.org/2000/svg">
<g clip-path="url(#clip0_30_1606)">
<path d="M45.8109 24C45.8109 35.8834 36.218 45.5 24.4054 45.5C12.5928 45.5 3 35.8834 3 24C3 12.1166 12.5928 2.5 24.4054 2.5C36.218 2.5 45.8109 12.1166 45.8109 24Z" stroke="#302943" stroke-width="5"/>
<mask id="mask0_30_1606" style="mask-type:alpha" maskUnits="userSpaceOnUse" x="12" y="6" width="28" height="38">
<path d="M37.4489 7.37671L14.5395 42.3767" stroke="white" stroke-width="5"/>
</mask>
<g mask="url(#mask0_30_1606)">
<path d="M32.3739 34H2.49207V52H32.3739V34Z" fill="#302943"/>
<path d="M49.3068 -5H15.4408V15H49.3068V-5Z" fill="#302943"/>
</g>
<path d="M24.9035 15C18.6046 15 13.1434 18.6576 10.4606 24C13.1434 29.3424 18.6046 33 24.9035 33C31.2024 33 36.6636 29.3424 39.3463 24C36.6636 18.6576 31.2024 15 24.9035 15ZM32.0256 19.7736C33.7226 20.8536 35.1615 22.299 36.2411 24C35.1649 25.7008 33.7255 27.1439 32.0256 28.2264C29.899 29.5812 27.428 30.301 24.9044 30.301C22.3807 30.301 19.9097 29.5812 17.7831 28.2264C16.084 27.143 14.6448 25.7 13.5676 24C14.7147 22.1876 16.2732 20.6696 18.1171 19.5684C17.7203 20.656 17.5923 21.823 17.7439 22.9705C17.8956 24.118 18.3225 25.212 18.9884 26.1601C19.6543 27.1081 20.5396 27.8821 21.5692 28.4164C22.5989 28.9508 23.7426 29.2298 24.9035 29.2298C26.0643 29.2298 27.208 28.9508 28.2377 28.4164C29.2674 27.8821 30.1527 27.1081 30.8186 26.1601C31.4845 25.212 31.9113 24.118 32.063 22.9705C32.2147 21.823 32.0866 20.656 31.6898 19.5684C31.8017 19.635 31.9137 19.7034 32.0238 19.7736H32.0256ZM24.9035 21.3C24.9032 22.0163 24.6176 22.7032 24.1094 23.2096C23.6012 23.7159 22.9121 24.0002 22.1936 24C21.4752 23.9998 20.7862 23.715 20.2784 23.2083C19.7705 22.7016 19.4853 22.0145 19.4856 21.2982C19.4858 20.5819 19.7715 19.895 20.2797 19.3886C20.7878 18.8823 21.477 18.598 22.1954 18.5982C22.9139 18.5984 23.6028 18.8832 24.1107 19.3899C24.6185 19.8966 24.9037 20.5837 24.9035 21.3Z" fill="#302943"/>
</g>
<defs>
<clipPath id="clip0_30_1606">
<rect width="48" height="48" fill="white" transform="translate(0.5)"/>
</clipPath>
</defs>
</svg>
